<svg id="Layer_1" data-name="Layer 1" xmlns="http://www.w3.org/2000/svg" viewBox="0 0 575.9096 288.2022" preserveAspectRatio="xMidYMid meet"><defs><style>.path,.cls-2{fill:#7c0a02;}.cls-2{stroke:#7c0a02;}</style></defs><title>WB-logo</title><line class="path" x1="287.9964" y1="80.5138" x2="506.8358" y2="195.9798"/><rect class="path" x="396.3957" y="14.5302" width="2.0411" height="247.4329" transform="translate(89.6893 425.224) rotate(-62.1827)"/><line class="path" x1="288" y1="80.5069" x2="70.9573" y2="195.9867"/><rect class="path" x="56.553" y="137.2259" width="245.8515" height="2.0415" transform="translate(-43.9019 100.4861) rotate(-28.0112)"/><rect class="path" x="79.5532" y="202.0069" width="419.6938" height="1"/><line class="path" x1="314.8267" y1="197.4581" x2="288" y2="94.8094"/><rect class="path" x="297.8902" y="93.0854" width="7.0455" height="106.0965" transform="matrix(0.9675, -0.2529, 0.2529, 0.9675, -27.1557, 80.9613)"/><ellipse class="path" cx="288.0274" cy="94.9142" rx="1.3678" ry="1.2994"/><path class="path" d="M288.019,98.4415a3.5873,3.5873,0,0,1-3.0742-1.7227,3.44,3.44,0,0,1-.3891-2.6992,3.5485,3.5485,0,0,1,1.7182-2.1787A3.6128,3.6128,0,0,1,291.11,93.11a3.4429,3.4429,0,0,1,.39,2.6982,3.548,3.548,0,0,1-1.72,2.18l-.001.001A3.66,3.66,0,0,1,288.019,98.4415Zm-.3769-4.35a.9182.9182,0,0,0-.4356.5679.98.98,0,0,0,.107.7588.8168.8168,0,0,0,1.0971.3188.875.875,0,0,0,.1-.064Zm.3843-.1a.7934.7934,0,0,0-.3824.0991l.8667,1.582a.9265.9265,0,0,0,.3374-.5043.9789.9789,0,0,0-.1059-.7579A.8429.8429,0,0,0,288.0264,93.9918Z"/><line class="path" x1="261.0764" y1="197.086" x2="288" y2="94.8094"/><rect class="path" x="221.6574" y="142.4244" width="105.7613" height="7.0465" transform="translate(63.5374 374.3126) rotate(-75.2589)"/><path class="path" d="M261.0764,197.086c-12.2155-25.0108-23.413-51.4509-35.665-76.4845"/><path class="path" d="M258.0107,198.5831c-6.08-12.4482-11.9975-25.4453-17.72-38.0146-5.7964-12.7305-11.79-25.8951-17.9433-38.4673l6.1289-2.9991c6.1948,12.6573,12.2085,25.8658,18.0244,38.6392,5.7036,12.5274,11.6016,25.4815,17.6411,37.8477Z"/><ellipse class="path" cx="261.1407" cy="197.3608" rx="1.3903" ry="1.0714"/><path class="path" d="M261.1484,200.4649a3.5427,3.5427,0,0,1-2.8393-1.3486,2.8986,2.8986,0,0,1-.5-2.4785,3.15,3.15,0,0,1,1.8091-2.0635h0a3.66,3.66,0,0,1,4.3544,1.0322,2.8979,2.8979,0,0,1,.4991,2.4776,3.1514,3.1514,0,0,1-1.81,2.0635A3.7333,3.7333,0,0,1,261.1484,200.4649Zm-.5263-3.6347a1.1228,1.1228,0,0,0-.0865.2285,1.18,1.18,0,0,0,.1807.9853c.0649.087.2993.3633.5557.2471Zm0,0,.65,1.4609a.945.945,0,0,0,.4736-.6279,1.1818,1.1818,0,0,0-.1812-.9854c-.0659-.0879-.2983-.3633-.5537-.248A.863.863,0,0,0,260.6221,196.83Z"/><path class="cls-2" d="M168.1421,217.21h7.8467c4.6074,0,7.415,1.9443,7.415,5.76,0,2.8789-1.3315,4.751-4.2471,5.3633,3.5274.5039,5.543,2.375,5.543,5.9746,0,4.14-3.2036,6.48-8.603,6.48h-7.9546Zm1.4394,10.7265h6.0835c4.3916-.0722,6.2271-1.6191,6.2271-4.7871,0-3.0234-1.98-4.6074-5.9033-4.6074h-6.4073Zm6.7315,11.4824c4.1035,0,6.8389-1.6552,6.8389-5.2187,0-3.4922-2.6275-4.9678-7.0191-4.9678h-6.5513V239.419Z"/><path class="cls-2" d="M190.6777,231.1407V217.21H192.19v14.0742c0,5.7949,2.4834,8.6035,7.2709,8.6035,4.6792,0,7.271-2.7363,7.271-8.6035V217.21h1.5118v13.9306c0,6.7666-3.2393,10.0781-8.7828,10.0781C193.6294,241.2188,190.6777,237.8712,190.6777,231.1407Z"/><path class="cls-2" d="M215.8052,217.21h1.5117v23.5771h-1.5117Z"/><path class="cls-2" d="M225.7773,217.21h1.5479V239.419h11.4463v1.3682H225.7773Z"/><path class="cls-2" d="M243.85,217.21h6.8389c6.9472,0,10.9428,4.0312,10.9428,11.663,0,7.5948-4.14,11.9141-11.3027,11.9141H243.85Zm6.8389,22.2451c5.5434,0,9.3227-3.6,9.3227-10.5469v-.0713c0-6.7676-3.2392-10.2949-9.3227-10.2949h-5.3272v20.9131Z"/><path class="cls-2" d="M268.1851,217.21h14.686v1.3681H269.7329v9.251h9.7905v1.3672h-9.7905v10.2588h13.6782v1.332h-15.226Z"/><path class="cls-2" d="M289.2812,217.21h6.6954c5.9384,0,8.7822,2.124,8.7822,6.1191,0,3.1318-1.98,5.6875-6.083,6.2275,3.456.8282,5.8672,3.6358,6.7676,10.2227.0361.1084.1435,1.0078.1435,1.0078h-1.62s-.1074-.8994-.1074-.9717c-.7559-6.7676-3.8516-9.539-7.7393-9.539H290.793v10.5107h-1.5118Zm6.9112,11.77c4.7148,0,6.9834-2.1592,6.9834-5.543,0-3.3115-2.0518-4.8955-7.02-4.8955H290.793v10.4385Z"/><path class="cls-2" d="M310.5566,235.3878l1.44-.5762c.7207,3.5635,3.7441,5.1113,6.9121,5.1113,3.7793,0,6.2988-2.1591,6.2988-5.0751,0-3.5274-3.1318-4.5352-6.6591-5.6153-3.7793-1.1513-6.9473-2.5556-6.9112-6.623.0362-3.5274,3.1319-5.8311,7.4873-5.8311,3.8867,0,6.5147,1.5479,7.5225,4.9317l-1.332.6113c-.6475-3.06-3.0948-4.211-6.19-4.211-3.3838,0-5.9394,1.6915-5.9394,4.4268,0,3.2764,2.5918,4.2842,6.0468,5.3633,3.8155,1.2246,7.4874,2.4844,7.4874,6.875,0,3.708-3.2393,6.4433-7.8467,6.4433C314.5879,241.2188,311.4922,239.131,310.5566,235.3878Z"/><path class="cls-2" d="M330.4287,247.4825l-.5039-.8642c2.5557-1.1875,2.8076-3.1319,2.8076-6.0108h-.54c-.1074,0-.18-.0361-.18-.1445V237.26a.1935.1935,0,0,1,.18-.1807h1.584a.1707.1707,0,0,1,.1806.1807v3.167C333.957,243.7032,333.417,246.1505,330.4287,247.4825Z"/><path class="cls-2" d="M348.0322,217.21h1.5117v23.5771h-1.5117Z"/><path class="cls-2" d="M358.0039,217.21h1.8721l10.7617,16.5224,3.2764,5.543-.3243-5.543V217.21h1.4756v23.5771H373.59L362.4316,223.69l-3.2763-5.4716.36,5.4716v17.0977h-1.5117Z"/><path class="cls-2" d="M381.62,229.0528c0-7.5947,4.5352-12.2744,10.69-12.2744,4.5713,0,7.3428,2.2676,8.7833,6.7305l-1.5127.3242c-1.3311-4.0312-3.6-5.7227-7.3067-5.7227-5.3633,0-9.0713,4.1036-9.0713,10.9063v.0723c0,6.4072,3.06,10.8339,8.711,10.8339,4.2119,0,6.8037-2.1953,7.8838-6.2265l1.4755.2881c-1.2236,4.6787-4.3554,7.2343-9.3593,7.2343C385.3271,241.2188,381.62,236.2159,381.62,229.0528Z"/><path class="cls-2" d="M405.8115,240.6437V237.26a.17.17,0,0,1,.18-.1807h1.584a.1707.1707,0,0,1,.1807.1807v3.3838c0,.1074-.0723.1435-.1807.1435h-1.584C405.8838,240.7872,405.8115,240.7511,405.8115,240.6437Z"/><path class="path" d="M314.7294,197.086c12.504-25.0108,23.9659-51.4509,36.5073-76.4845"/><path class="path" d="M317.8164,198.63l-6.1738-3.0879c6.1816-12.3652,12.22-25.32,18.0586-37.85C335.6543,144.92,341.81,131.713,348.15,119.0558l6.1719,3.0918c-6.2969,12.57-12.4317,25.7324-18.3643,38.4609C330.1,173.18,324.042,186.1788,317.8164,198.63Z"/><path class="path" d="M287.1883,80.3784l.8125-.4253.8656.4546"/><polygon class="path" points="288.619 80.878 288 80.553 287.435 80.849 286.942 79.908 288.001 79.353 289.113 79.938 288.619 80.878"/><ellipse class="path" cx="314.6721" cy="197.4087" rx="1.3903" ry="1.0714"/><path class="path" d="M314.68,200.5128a3.5414,3.5414,0,0,1-2.84-1.35,2.9,2.9,0,0,1-.5-2.4776,3.1549,3.1549,0,0,1,1.81-2.0634,3.659,3.659,0,0,1,4.3545,1.0322,2.9,2.9,0,0,1,.5,2.4775,3.1545,3.1545,0,0,1-1.81,2.0635A3.7367,3.7367,0,0,1,314.68,200.5128Zm-.0117-4.0625a.2958.2958,0,0,0-.125.0273.9425.9425,0,0,0-.4766.6289,1.184,1.184,0,0,0,.1816.9854c.0645.0869.295.3652.5557.2471a.9439.9439,0,0,0,.4736-.628,1.1835,1.1835,0,0,0-.1816-.9853A.624.624,0,0,0,314.668,196.45Z"/><line class="path" x1="288" y1="83.2496" x2="500.1874" y2="195.4065"/><polygon class="path" points="500.129 195.517 287.941 83.36 288.059 83.139 500.246 195.296 500.129 195.517"/><line class="path" x1="288" y1="83.2496" x2="75.2634" y2="196.3373"/><rect class="path" x="61.1682" y="139.6684" width="240.9268" height="0.2499" transform="translate(-44.3466 101.5043) rotate(-27.9671)"/><path class="path" d="M97.16,84.5382l2.9311-1.5147L115.7705,100.19l4.9556,6.1065.2221-.1148-2.0688-7.5981-4.84-22.7661,3.02-1.5606,15.9892,17.0059,4.9561,6.1064.2217-.1147-2.0684-7.5982L131.229,66.9356l2.8428-1.4687L140.7754,98.92l-3.02,1.5606-16.876-18.0679-4.273-5.2207-.0888.0459,1.7856,6.5058,5.1939,24.1036-2.9761,1.5376Z"/><path class="path" d="M142.2051,62.3927l19.3877-7.6734,1.0122,2.5572-16.459,6.5141,4.2876,10.833,12.042-4.7661,1.0122,2.5571-12.042,4.7662,4.748,11.9951,17.1094-6.772,1.0122,2.5571-20.0385,7.9317Z"/><path class="path" d="M167.4463,52.6578l22.3662-6.8911.8242,2.6763-9.6533,2.9741,8.8345,28.6743-3.0108.9277-8.8344-28.6743-9.7017,2.9893Z"/><path class="path" d="M198.4541,43.4967l3.08-.66,3.061,14.2754L222.0977,53.36l-3.0611-14.2759,3.08-.6607,6.877,32.0713-3.08.6607-3.2285-15.0576L205.1821,59.85l3.2285,15.0581-3.0795.66Z"/><path class="path" d="M235.0454,36.4078,255.75,33.9454l.3252,2.731-17.5772,2.09,1.376,11.5688,12.86-1.5293.3247,2.731-12.86,1.5293,1.5235,12.81,18.2719-2.1729.3252,2.7305-21.4,2.5454Z"/><path class="path" d="M266.27,33.2188l9.9448-.291c8.3453-.2451,12.1856,2.7935,12.3438,8.1905.1172,3.998-2.1748,7.7163-7.895,8.7841,4.9306,1.0059,8.2021,5.1114,9.5093,13.8755.0634.4483.1923,1.4449.2451,1.5435L287.07,65.42c-.0015-.05-.1308-1.0464-.1411-1.3965-1.16-8.8686-4.9209-12.6093-10.4683-12.4467l-6.5463.1919.4145,14.1421-3.0981.0908Zm10.3179,15.8531c6.1963-.1817,8.8569-3.2608,8.7324-7.5083-.1216-4.148-2.6328-6.2251-9.18-6.0332l-6.6963.1963.397,13.5429Z"/><path class="path" d="M300.2891,32.9317l3.1982.1192-1.2217,32.7817-3.1982-.1191Z"/><path class="path" d="M316.17,33.6056l3.7276.4087,11.458,23.0336,3.4843,8.1275.3477-7.7578L337.54,35.9483l3.0821.3374-3.5742,32.6021-3.0313-.3325L321.8457,44.2364l-3.5019-7.978-.2315,7.6191L315.6289,66.54l-3.0322-.332Z"/><path class="path" d="M347.9629,54.04c2.1807-10.1689,9.5117-15.5005,18.5557-13.5615,6.4531,1.3838,10.04,5.17,10.7929,10.9566l-3.3388.3071c-.4844-4.6553-3.18-7.5855-8.02-8.6236-7.1875-1.541-12.9424,2.6456-14.83,11.4454l-.0312.1469c-1.876,8.751,1.5,14.9468,8.2471,16.3931,5.2793,1.1323,10.9062-1.4966,13.0166-9.4307l-8.752-1.8764.5977-2.7867,11.88,2.5474L372.56,75.9845l-2.3955-.5137,1.9951-10.26c-2.54,7.0747-7.8906,9.6094-13.8545,8.3306C350.0908,71.78,345.7617,64.3067,347.9629,54.04Z"/><path class="path" d="M386.2393,45.8038l22.3593,6.898-.8252,2.6757L398.1221,52.4l-8.8438,28.665-3.01-.9287,8.8437-28.665-9.6982-2.9922Z"/><path class="path" d="M408.6855,70.0372c3.8633-9.4936,11.586-13.7466,20.292-10.2036,8.2891,3.373,11.126,11.9224,7.2627,21.416-3.92,9.6328-11.6211,13.57-20.3271,10.0269C407.53,87.8658,404.7471,79.7159,408.6855,70.0372Zm24.48,10.0151.0567-.1391c3.2793-8.0576,1.1758-14.96-5.3545-17.6167-6.7617-2.751-12.8818.75-16.1983,8.9l-.038.0927c-3.2979,8.1041-1.2217,14.941,5.3076,17.5977C423.7461,91.6573,429.83,88.2491,433.165,80.0523Z"/><path class="path" d="M452.3027,70.752l3.3174,1.7486,2.2022,25.6352.2578,8.8409,3.1719-7.09,10.0722-19.1094,2.7422,1.4454-15.2949,29.0185-2.6983-1.4224-2.3945-27.0932-.3271-8.708-3.0137,7.0034-10.6318,20.1714L437.0078,99.77Z"/></svg>